<?xml version="1.0" encoding="iso-8859-1"?>
<!-- Generator: Adobe Illustrator 19.0.0, SVG Export Plug-In . SVG Version: 6.00 Build 0)  -->
<svg version="1.1" id="Layer_1" xmlns="http://www.w3.org/2000/svg" xmlns:xlink="http://www.w3.org/1999/xlink" x="0px" y="0px"
	 viewBox="0 0 512.002 512.002" style="enable-background:new 0 0 512.002 512.002;" xml:space="preserve">
<g>
	<path style="fill:#8697CB;" d="M469.333,375.467H128c-3.977,0-7.424-2.739-8.32-6.613l-51.2-221.867
		c-0.58-2.534,0.017-5.197,1.647-7.236c1.613-2.031,4.07-3.217,6.673-3.217h426.667c2.492,0,4.855,1.084,6.477,2.978
		c1.621,1.886,2.338,4.395,1.954,6.852l-34.133,221.867C477.124,372.396,473.54,375.467,469.333,375.467"/>
	<g>
		<path style="fill:#496072;" d="M179.2,443.734h-35.473c-3.977,0-7.424-2.748-8.32-6.613L51.345,72.116
			c-1.058-4.599,1.809-9.182,6.4-10.24c4.565-1.033,9.173,1.818,10.231,6.4l82.543,358.391H179.2c4.719,0,8.533,3.823,8.533,8.533
			S183.919,443.734,179.2,443.734"/>
		<path style="fill:#496072;" d="M34.133,51.201c-9.412,0-17.067,7.654-17.067,17.067s7.654,17.067,17.067,17.067
			S51.2,77.68,51.2,68.267S43.546,51.201,34.133,51.201 M34.133,102.401C15.309,102.401,0,87.092,0,68.267
			s15.309-34.133,34.133-34.133s34.133,15.309,34.133,34.133S52.958,102.401,34.133,102.401"/>
		<path style="fill:#496072;" d="M213.333,409.601c-14.114,0-25.6,11.486-25.6,25.6s11.486,25.6,25.6,25.6s25.6-11.486,25.6-25.6
			S227.447,409.601,213.333,409.601 M213.333,477.868c-23.526,0-42.667-19.14-42.667-42.667s19.14-42.667,42.667-42.667
			S256,411.674,256,435.201S236.86,477.868,213.333,477.868"/>
		<path style="fill:#496072;" d="M384,409.601c-14.114,0-25.6,11.486-25.6,25.6s11.486,25.6,25.6,25.6
			c14.114,0,25.6-11.486,25.6-25.6S398.114,409.601,384,409.601 M384,477.868c-23.526,0-42.667-19.14-42.667-42.667
			s19.14-42.667,42.667-42.667s42.667,19.14,42.667,42.667S407.526,477.868,384,477.868"/>
		<path style="fill:#496072;" d="M349.867,443.734h-102.4c-4.719,0-8.533-3.823-8.533-8.533s3.814-8.533,8.533-8.533h102.4
			c4.719,0,8.533,3.823,8.533,8.533S354.586,443.734,349.867,443.734"/>
		<path style="fill:#496072;" d="M452.267,443.734h-34.133c-4.719,0-8.533-3.823-8.533-8.533s3.814-8.533,8.533-8.533h34.133
			c4.719,0,8.533,3.823,8.533,8.533S456.986,443.734,452.267,443.734"/>
		<path style="fill:#496072;" d="M469.325,375.467c-1.425,0-2.867-0.358-4.19-1.101L72.602,152.5
			c-4.105-2.321-5.555-7.526-3.226-11.631c2.321-4.105,7.535-5.547,11.622-3.234l392.533,221.867
			c4.105,2.321,5.555,7.526,3.226,11.631C475.187,373.906,472.303,375.467,469.325,375.467"/>
		<path style="fill:#496072;" d="M128.009,375.467c-2.918,0-5.76-1.493-7.356-4.19c-2.398-4.062-1.05-9.293,3.004-11.691
			L499.123,137.72c4.087-2.389,9.293-1.05,11.691,3.004c2.398,4.062,1.05,9.293-3.004,11.691L132.343,374.281
			C130.978,375.084,129.485,375.467,128.009,375.467"/>
	</g>
</g>
<g>
</g>
<g>
</g>
<g>
</g>
<g>
</g>
<g>
</g>
<g>
</g>
<g>
</g>
<g>
</g>
<g>
</g>
<g>
</g>
<g>
</g>
<g>
</g>
<g>
</g>
<g>
</g>
<g>
</g>
</svg>
